<svg width="10" height="13" viewBox="0 0 10 13" fill="none" xmlns="http://www.w3.org/2000/svg">
<path fill-rule="evenodd" clip-rule="evenodd" d="M9.46294 4.62599C9.45539 5.17532 9.33276 5.71682 9.10294 6.21583C8.71495 7.10613 8.225 7.94868 7.64293 8.72608C6.88626 9.77086 6.07166 10.7724 5.20295 11.7261C5.16524 11.7838 5.12167 11.837 5.07294 11.8858C5.03364 11.9357 4.98351 11.9762 4.92635 12.0039C4.86919 12.0317 4.80648 12.0459 4.74294 12.0459C4.6794 12.0459 4.61669 12.0317 4.55953 12.0039C4.50237 11.9762 4.45224 11.9357 4.41294 11.8858C4.03294 11.4658 3.65295 11.0457 3.28295 10.6157C2.44077 9.65255 1.68768 8.61535 1.03295 7.51612C0.756477 7.03482 0.509354 6.53701 0.292942 6.02589C-0.0595842 5.20114 -0.0952006 4.27518 0.192936 3.42579C0.424018 2.56645 0.8994 1.79285 1.56145 1.19825C2.2235 0.603647 3.04381 0.213466 3.92295 0.0756922C5.09536 -0.137542 6.30497 0.103648 7.30608 0.750009C8.3072 1.39637 9.02474 2.39989 9.31295 3.55616C9.40295 3.90616 9.43294 4.28577 9.49294 4.65577L9.46294 4.62599ZM6.88294 4.69581C6.88294 4.27058 6.75685 3.85504 6.5206 3.50147C6.28436 3.14791 5.94858 2.87221 5.55571 2.70948C5.16285 2.54675 4.73056 2.50445 4.3135 2.58741C3.89644 2.67037 3.51335 2.87511 3.21267 3.17579C2.91198 3.47647 2.70721 3.85932 2.62426 4.27638C2.5413 4.69343 2.58387 5.1257 2.7466 5.51856C2.90933 5.91142 3.18491 6.24716 3.53847 6.48341C3.89204 6.71965 4.30771 6.84571 4.73294 6.84571C5.01864 6.85103 5.30251 6.79952 5.568 6.69386C5.83348 6.58819 6.07525 6.43066 6.27915 6.23048C6.48305 6.0303 6.645 5.79133 6.75554 5.52784C6.86608 5.26435 6.923 4.98155 6.92295 4.69581H6.88294Z" fill="#BD1469"/>
</svg>
