<svg width="12" height="11" viewBox="0 0 12 11" fill="none" xmlns="http://www.w3.org/2000/svg">
<path fill-rule="evenodd" clip-rule="evenodd" d="M0 3.28439C0.0111075 3.8102 0.109135 4.33059 0.290039 4.82443C0.465724 5.27569 0.686835 5.70796 0.950012 6.11446C1.26608 6.58626 1.62062 7.03119 2.01001 7.44454C2.42862 7.88676 2.87272 8.30414 3.34003 8.69454C3.88337 9.16001 4.46547 9.57819 5.08002 9.94454C5.54811 10.2279 6.04402 10.4626 6.56 10.6447C6.92355 10.767 7.29894 10.8508 7.67999 10.8947C8.21604 10.96 8.75971 10.9191 9.28003 10.7746C9.77726 10.6362 10.2381 10.3902 10.63 10.0544C10.8152 9.88582 10.9859 9.70202 11.14 9.5046C11.24 9.3746 11.36 9.25472 11.47 9.12472C11.5584 9.02752 11.6294 8.91582 11.68 8.79464C11.7293 8.69518 11.7551 8.58535 11.7551 8.47433C11.7551 8.3633 11.7293 8.25396 11.68 8.1545C11.5531 7.95928 11.3943 7.7871 11.21 7.64474C10.97 7.45474 10.7 7.29472 10.44 7.12472C10.18 6.95472 10.05 6.88439 9.84003 6.78439C9.63424 6.67759 9.41044 6.61008 9.17999 6.58468C9.02865 6.56244 8.87426 6.57498 8.72864 6.62179C8.58301 6.6686 8.45007 6.74845 8.34003 6.8547C8.20572 6.98056 8.07883 7.11402 7.96002 7.2546C7.8407 7.39054 7.73045 7.53387 7.63 7.68429C7.51135 7.86193 7.33457 7.99286 7.13 8.05441C6.9528 8.09927 6.76723 8.09927 6.59003 8.05441C6.35084 7.99496 6.12172 7.90083 5.91003 7.77462C5.53088 7.55453 5.17271 7.29988 4.84003 7.01437C4.5201 6.75289 4.21619 6.47254 3.92999 6.17452C3.67074 5.90668 3.4457 5.6076 3.26001 5.28439C3.15541 5.10782 3.09376 4.90907 3.08002 4.70431C3.07064 4.59127 3.08542 4.4777 3.12335 4.37081C3.16128 4.26392 3.22152 4.16652 3.30005 4.08468C3.33419 4.04244 3.37092 4.00224 3.41003 3.96456C3.58593 3.80351 3.7497 3.62969 3.90002 3.44454C3.98557 3.34215 4.06567 3.23551 4.14001 3.12472C4.22047 2.99063 4.27027 2.84038 4.28583 2.68478C4.30139 2.52918 4.28235 2.37169 4.23004 2.22433C4.14581 1.97034 4.01715 1.73362 3.85004 1.52462C3.65004 1.27462 3.44004 1.02439 3.23004 0.784386C3.08206 0.606394 2.91804 0.442626 2.74005 0.29464C2.61604 0.18698 2.47377 0.102319 2.32001 0.0446401C2.19879 -0.000903308 2.06736 -0.0118143 1.94025 0.0129018C1.81314 0.0376178 1.69536 0.0966404 1.60004 0.184289C1.50187 0.269133 1.40836 0.359287 1.32001 0.454308C1.19001 0.614308 1.05003 0.764757 0.910034 0.914757C0.658128 1.21225 0.458593 1.5504 0.320007 1.91476C0.188602 2.2342 0.104387 2.57106 0.0700073 2.91476C0.0100073 3.00476 0.01 3.14439 0 3.28439Z" fill="#BD1469"/>
</svg>
