<svg width="14" height="13" viewBox="0 0 14 13" fill="none" xmlns="http://www.w3.org/2000/svg">
<path fill-rule="evenodd" clip-rule="evenodd" d="M0 6.9502V6.02002C0 5.96002 4.88274e-05 5.89008 0.0500488 5.83008C0.16328 4.57407 0.647895 3.3804 1.4422 2.40088C2.2365 1.42136 3.30448 0.700337 4.51001 0.330078C5.00469 0.183685 5.50936 0.0733168 6.02002 0H7.02002L7.67004 0.110352C8.81678 0.317182 9.88683 0.828104 10.7682 1.59033C11.6495 2.35256 12.3098 3.33795 12.6798 4.44287C13.0498 5.5478 13.1161 6.7318 12.8715 7.87109C12.627 9.01038 12.0806 10.0632 11.2897 10.9189C10.4988 11.7747 9.49251 12.402 8.37598 12.7354C7.25945 13.0687 6.07384 13.096 4.94324 12.814C3.81264 12.532 2.77858 11.951 1.9494 11.1323C1.12023 10.3136 0.52641 9.28708 0.230042 8.16016C0.120042 7.77016 0.07 7.3602 0 6.9502ZM12 6.53027C12.004 5.44008 11.6844 4.37337 11.0818 3.46484C10.4793 2.55632 9.62069 1.84667 8.61481 1.42627C7.60892 1.00587 6.5009 0.893496 5.43103 1.10303C4.36116 1.31256 3.37754 1.83473 2.60455 2.60352C1.83157 3.3723 1.30398 4.35316 1.08862 5.42188C0.873264 6.49059 0.979804 7.59926 1.39471 8.60742C1.80962 9.61558 2.51427 10.4779 3.41949 11.0854C4.32472 11.693 5.38984 12.018 6.48004 12.02C7.94059 12.0253 9.3437 11.4519 10.3821 10.4248C11.4205 9.39767 12.0094 8.00056 12.02 6.54004L12 6.53027Z" fill="#BD1469"/>
<path fill-rule="evenodd" clip-rule="evenodd" d="M6.01001 4.53027C6.01001 3.90027 6.01001 3.27039 6.01001 2.65039C6.01001 2.28039 6.19005 2.05029 6.49005 2.05029C6.79005 2.05029 7 2.27014 7 2.64014C7 3.78014 7 4.92029 7 6.05029C7.00225 6.20855 7.06694 6.35944 7.17999 6.47021C7.73999 7.07021 8.33002 7.64021 8.90002 8.22021C8.9924 8.29327 9.05536 8.397 9.07739 8.5127C9.09943 8.62839 9.07907 8.7482 9.02002 8.8501C8.97585 8.94999 8.89613 9.02986 8.79633 9.07422C8.69652 9.11858 8.58378 9.12448 8.48004 9.09033C8.36188 9.06058 8.25446 8.99803 8.17004 8.91016C7.51004 8.26016 6.85004 7.61016 6.17004 6.91016C6.04688 6.76811 5.97626 6.58829 5.97003 6.40039C5.97003 5.76039 5.97003 5.12023 5.97003 4.49023L6.01001 4.53027Z" fill="#BD1469"/>
</svg>
