<svg xmlns="http://www.w3.org/2000/svg" width="24" height="24" viewBox="0 0 24 24" fill="none" stroke="currentColor" stroke-width="2" stroke-linecap="round" stroke-linejoin="round" class="feather feather-skype"><path d="M16.5 12c0-1.8-1.5-3.3-3.3-3.3H8.3C6.5 8.7 5 10.2 5 12v1.5c0 1.8 1.5 3.3 3.3 3.3h4.9c1.8 0 3.3-1.5 3.3-3.3V12zm-3.3 1.5H8.3v-3h4.9v3zM21.3 5.7C19.5 4.5 17.3 4 15 4c-2.3 0-4.5.5-6.3 1.7C6.9 7.5 5.5 9.6 5.5 12c0 2.4 1.4 4.5 3.2 5.3 1.8 1.2 4 1.7 6.3 1.7 2.3 0 4.5-.5 6.3-1.7C23.1 16.5 24.5 14.4 24.5 12c0-2.4-1.4-4.5-3.2-6.3z"></path></svg>